<svg width="100%" height="100%"  xmlns="http://www.w3.org/2000/svg">
 <!-- Created with Method Draw - http://github.com/duopixel/Method-Draw/ -->

 <g>
  <title>background</title>
  <rect fill="#fff" id="canvas_background" y="-1" x="-1"/>
 </g>
 <g>
  <title>Layer 1</title>
  <ellipse ry="280" rx="280" id="svg_1" cy="300" cx="400" stroke-opacity="null" stroke-width="0" stroke="#000" fill="#15d6d6"/>
  <g id="svg_19">
   <path id="svg_18" d="m409.73126,405.96249c0,-3.24375 0,-5.40625 -1.08125,-8.65c-1.08125,-2.1625 -1.08125,-5.40625 -2.1625,-7.56875c-1.08125,-2.1625 -2.1625,-4.325 -3.24375,-7.56875c-2.1625,-2.1625 -3.24375,-4.325 -4.325,-6.4875c-1.08125,-2.1625 -3.24375,-3.24375 -5.40625,-6.4875c-2.1625,-2.1625 -4.325,-4.325 -5.40625,-5.40625c-1.08125,-1.08125 -3.24375,-3.24375 -6.4875,-5.40625c-3.24375,-2.1625 -5.40625,-4.325 -6.4875,-4.325s-3.24375,-2.1625 -6.4875,-4.325c-3.24375,-2.1625 -5.40625,-4.325 -6.4875,-4.325c-2.1625,0 -5.40625,0 -10.8125,0c-7.56875,0 -15.1375,0 -21.625,1.08125c-7.56875,1.08125 -15.1375,2.1625 -22.70625,5.40625c-7.56875,2.1625 -14.05625,5.40625 -20.54375,9.73125s-10.8125,8.65 -14.05625,15.1375c-3.24375,6.4875 -5.40625,14.05625 -5.40625,22.70625c0,9.73125 2.1625,18.38125 7.56875,24.86875c5.40625,7.56875 11.89375,12.975 19.4625,17.3s16.21875,7.56875 24.86875,9.73125s17.3,3.24375 25.95,3.24375c8.65,0 16.21875,-1.08125 23.7875,-2.1625c7.56875,-2.1625 14.05625,-4.325 20.54375,-8.65c6.4875,-3.24375 11.89375,-8.65 15.1375,-15.1375c3.24375,-6.4875 5.40625,-14.05625 5.40625,-22.70625zm-24.86875,-179.4875c0,-8.65 -1.08125,-17.3 -3.24375,-27.03125c-2.1625,-9.73125 -5.40625,-18.38125 -9.73125,-27.03125c-4.325,-8.65 -9.73125,-16.21875 -17.3,-21.625c-7.56875,-5.40625 -16.21875,-8.65 -24.86875,-8.65c-12.975,0 -22.70625,4.325 -30.275,14.05625c-7.56875,9.73125 -10.8125,20.54375 -10.8125,34.6c0,6.4875 1.08125,12.975 2.1625,20.54375c1.08125,7.56875 4.325,14.05625 7.56875,21.625c3.24375,7.56875 7.56875,14.05625 11.89375,19.4625c4.325,5.40625 9.73125,10.8125 16.21875,14.05625c6.4875,3.24375 12.975,5.40625 20.54375,5.40625c12.975,0 22.70625,-4.325 29.19375,-12.975c5.40625,-7.56875 8.65,-18.38125 8.65,-32.4375zm-27.03125,-98.39375l90.825,0l-28.1125,16.21875l-28.1125,0c9.73125,6.4875 17.3,15.1375 22.70625,25.95s8.65,22.70625 8.65,34.6c0,9.73125 -1.08125,19.4625 -4.325,27.03125c-3.24375,7.56875 -7.56875,14.05625 -11.89375,19.4625c-4.325,4.325 -8.65,9.73125 -14.05625,12.975c-4.325,4.325 -8.65,8.65 -11.89375,12.975c-3.24375,4.325 -4.325,8.65 -4.325,14.05625c0,3.24375 1.08125,7.56875 3.24375,10.8125c2.1625,3.24375 5.40625,6.4875 8.65,9.73125c3.24375,3.24375 7.56875,6.4875 11.89375,9.73125c4.325,3.24375 8.65,7.56875 12.975,11.89375c4.325,4.325 8.65,8.65 11.89375,14.05625c3.24375,5.40625 6.4875,10.8125 8.65,17.3c2.1625,6.4875 3.24375,14.05625 3.24375,21.625c0,22.70625 -9.73125,42.16875 -29.19375,58.3875c-20.54375,18.38125 -49.7375,27.03125 -87.58125,27.03125c-8.65,0 -16.21875,-1.08125 -24.86875,-2.1625c-8.65,-1.08125 -17.3,-3.24375 -24.86875,-6.4875c-8.65,-3.24375 -16.21875,-7.56875 -22.70625,-11.89375c-6.4875,-4.325 -11.89375,-10.8125 -16.21875,-18.38125c-3.24375,-6.4875 -5.40625,-14.05625 -5.40625,-23.7875c0,-8.65 2.1625,-17.3 7.56875,-28.1125c4.325,-8.65 10.8125,-16.21875 19.4625,-22.70625c8.65,-6.4875 19.4625,-11.89375 30.275,-15.1375c10.8125,-3.24375 21.625,-5.40625 32.4375,-7.56875c9.73125,-1.08125 20.54375,-2.1625 31.35625,-3.24375c-8.65,-11.89375 -12.975,-21.625 -12.975,-31.35625c0,-2.1625 0,-3.24375 0,-5.40625c0,-1.08125 1.08125,-3.24375 1.08125,-4.325c0,-1.08125 1.08125,-2.1625 2.1625,-4.325c1.08125,-2.1625 1.08125,-3.24375 1.08125,-4.325c-5.40625,1.08125 -10.8125,1.08125 -14.05625,1.08125c-20.54375,0 -37.84375,-6.4875 -52.98125,-20.54375c-15.1375,-14.05625 -21.625,-30.275 -21.625,-50.81875c0,-19.4625 6.4875,-36.7625 19.4625,-51.9c12.975,-14.05625 29.19375,-23.7875 48.65625,-28.1125c12.975,-3.24375 25.95,-4.325 38.925,-4.325zm215.16875,52.98125l0,27.03125l-52.98125,0l0,52.98125l-27.03125,0l0,-52.98125l-52.98125,0l0,-27.03125l52.98125,0l0,-52.98125l27.03125,0l0,52.98125l52.98125,0z" fill="#ffffff"/>
  </g>
 </g>
</svg>
