<svg width="100%" height="100%" xmlns="http://www.w3.org/2000/svg">
 <!-- Created with Method Draw - http://github.com/duopixel/Method-Draw/ -->

 <g>
  <title>background</title>
  <rect fill="#fff" id="canvas_background"  y="-1" x="-1"/>
 </g>
 <g>
  <title>Layer 1</title>
  <ellipse ry="280" rx="280" id="svg_1" cy="300" cx="400" stroke-opacity="null" stroke-width="0" stroke="#000" fill="#15d6d6"/>
  <g id="svg_13">
   <path id="svg_12" d="m608.81252,170.54926c-15.61215,6.50506 -31.2243,11.70911 -49.43847,13.01012c18.21417,-10.4081 31.2243,-27.32126 37.72936,-46.83645c-16.91316,10.4081 -35.12734,16.91316 -54.64252,20.8162c-14.31114,-16.91316 -37.72936,-27.32126 -61.14759,-27.32126c-46.83645,0 -85.86682,37.72936 -85.86682,85.86682c0,6.50506 1.30101,13.01012 2.60202,19.51519c-71.55569,-3.90304 -134.00429,-37.72936 -176.9377,-89.76986c-7.80607,13.01012 -11.70911,27.32126 -11.70911,42.93341c0,29.92329 15.61215,55.94354 37.72936,71.55569c-14.31114,0 -27.32126,-3.90304 -39.03037,-10.4081c0,0 0,1.30101 0,1.30101c0,41.6324 29.92329,75.45872 68.95366,83.2648c-7.80607,1.30101 -14.31114,2.60202 -22.11721,2.60202c-5.20405,0 -10.4081,0 -15.61215,-1.30101c10.4081,33.82632 42.93341,58.54556 79.36176,59.84657c-28.62227,23.41822 -66.35164,36.42835 -106.68302,36.42835c-6.50506,0 -14.31114,0 -20.8162,-1.30101c37.72936,24.71924 83.2648,39.03037 131.40226,39.03037c157.42251,0 243.28933,-130.10125 243.28933,-243.28933c0,-3.90304 0,-7.80607 0,-10.4081c16.91316,-13.01012 31.2243,-28.62227 42.93341,-45.53544z" fill="#ffffff"/>
  </g>
 </g>
</svg>
