<svg width="100%" viewBox="0 0 200 100" xmlns="http://www.w3.org/2000/svg">
 <!-- Created with Method Draw - http://github.com/duopixel/Method-Draw/ -->

 <g>
  <title>background</title>
  <g display="none" overflow="visible" y="0" x="0" height="100%" width="100%" id="canvasGrid">
   <rect fill="url(#gridpattern)" stroke-width="0" y="1" x="1" height="230" width="230"/>
  </g>
 </g>
 <g>
  <title>Layer 1</title>
  <ellipse ry="113.5" rx="113.5" id="svg_7" cy="117" cx="117" stroke-width="0" stroke="#000" fill="#07f4f4"/>
  <g id="svg_19">
   <path id="svg_18" d="m157.31034,84.67128l-28.13769,0l0,-18.45421c0,-6.93045 4.59331,-8.5462 7.8285,-8.5462c3.22783,0 19.85649,0 19.85649,0l0,-30.46747l-27.34638,-0.10674c-30.35706,0 -37.26542,22.72363 -37.26542,37.26542l0,20.3092l-17.55615,0l0,31.39497l17.55615,0c0,40.29082 0,88.83709 0,88.83709l36.92681,0c0,0 0,-49.02473 0,-88.83709l24.91723,0l3.22047,-31.39497z" fill="#ffffff"/>
  </g>
 </g>
</svg>
