<svg width="100%" viewBox="0 0 200 100" xmlns="http://www.w3.org/2000/svg">
 <!-- Created with Method Draw - http://github.com/duopixel/Method-Draw/ -->

 <g>
  <title>background</title>
  <rect fill="#ffffff" id="canvas_background" height="234" width="234" y="-1" x="-1"/>
  <g display="none" overflow="visible" y="0" x="0" height="100%" width="100%" id="canvasGrid">
   <rect fill="url(#gridpattern)" stroke-width="0" y="1" x="1" height="230" width="230"/>
  </g>
 </g>
 <g>
  <title>Layer 1</title>
  <ellipse ry="113.5" rx="113.5" id="svg_7" cy="117" cx="117" stroke-width="0" stroke="#000" fill="#07f4f4"/>
  <g id="svg_25">
   <path id="svg_24" d="m120.65,166.63337c0,-1.55 0,-2.58334 -0.51667,-4.13334c-0.51667,-1.03333 -0.51667,-2.58334 -1.03333,-3.61667c-0.51667,-1.03333 -1.03333,-2.06667 -1.55,-3.61667c-1.03333,-1.03333 -1.55,-2.06667 -2.06667,-3.1c-0.51667,-1.03333 -1.55,-1.55 -2.58334,-3.1c-1.03333,-1.03333 -2.06667,-2.06667 -2.58334,-2.58334c-0.51667,-0.51667 -1.55,-1.55 -3.1,-2.58334c-1.55,-1.03333 -2.58334,-2.06667 -3.1,-2.06667s-1.55,-1.03333 -3.1,-2.06667c-1.55,-1.03333 -2.58334,-2.06667 -3.1,-2.06667c-1.03333,0 -2.58334,0 -5.16667,0c-3.61667,0 -7.23334,0 -10.33334,0.51667c-3.61667,0.51667 -7.23334,1.03333 -10.85001,2.58334c-3.61667,1.03333 -6.71667,2.58334 -9.81667,4.65s-5.16667,4.13334 -6.71667,7.23334c-1.55,3.1 -2.58334,6.71667 -2.58334,10.85001c0,4.65 1.03333,8.78334 3.61667,11.88334c2.58334,3.61667 5.68334,6.2 9.30001,8.26667s7.75001,3.61667 11.88334,4.65s8.26667,1.55 12.40001,1.55c4.13334,0 7.75001,-0.51667 11.36667,-1.03333c3.61667,-1.03333 6.71667,-2.06667 9.81667,-4.13334c3.1,-1.55 5.68334,-4.13334 7.23334,-7.23334c1.55,-3.1 2.58334,-6.71667 2.58334,-10.85001zm-11.88334,-85.76672c0,-4.13334 -0.51667,-8.26667 -1.55,-12.91668c-1.03333,-4.65 -2.58334,-8.78334 -4.65,-12.91668c-2.06667,-4.13334 -4.65,-7.75001 -8.26667,-10.33334c-3.61667,-2.58334 -7.75001,-4.13334 -11.88334,-4.13334c-6.2,0 -10.85001,2.06667 -14.46668,6.71667c-3.61667,4.65 -5.16667,9.81667 -5.16667,16.53334c0,3.1 0.51667,6.2 1.03333,9.81667c0.51667,3.61667 2.06667,6.71667 3.61667,10.33334c1.55,3.61667 3.61667,6.71667 5.68334,9.30001c2.06667,2.58334 4.65,5.16667 7.75001,6.71667c3.1,1.55 6.2,2.58334 9.81667,2.58334c6.2,0 10.85001,-2.06667 13.95001,-6.2c2.58334,-3.61667 4.13334,-8.78334 4.13334,-15.50001zm-12.91668,-47.0167l43.40003,0l-13.43334,7.75001l-13.43334,0c4.65,3.1 8.26667,7.23334 10.85001,12.40001s4.13334,10.85001 4.13334,16.53334c0,4.65 -0.51667,9.30001 -2.06667,12.91668c-1.55,3.61667 -3.61667,6.71667 -5.68334,9.30001c-2.06667,2.06667 -4.13334,4.65 -6.71667,6.2c-2.06667,2.06667 -4.13334,4.13334 -5.68334,6.2c-1.55,2.06667 -2.06667,4.13334 -2.06667,6.71667c0,1.55 0.51667,3.61667 1.55,5.16667c1.03333,1.55 2.58334,3.1 4.13334,4.65c1.55,1.55 3.61667,3.1 5.68334,4.65c2.06667,1.55 4.13334,3.61667 6.2,5.68334c2.06667,2.06667 4.13334,4.13334 5.68334,6.71667c1.55,2.58334 3.1,5.16667 4.13334,8.26667c1.03333,3.1 1.55,6.71667 1.55,10.33334c0,10.85001 -4.65,20.15001 -13.95001,27.90002c-9.81667,8.78334 -23.76668,12.91668 -41.85003,12.91668c-4.13334,0 -7.75001,-0.51667 -11.88334,-1.03333c-4.13334,-0.51667 -8.26667,-1.55 -11.88334,-3.1c-4.13334,-1.55 -7.75001,-3.61667 -10.85001,-5.68334c-3.1,-2.06667 -5.68334,-5.16667 -7.75001,-8.78334c-1.55,-3.1 -2.58334,-6.71667 -2.58334,-11.36667c0,-4.13334 1.03333,-8.26667 3.61667,-13.43334c2.06667,-4.13334 5.16667,-7.75001 9.30001,-10.85001c4.13334,-3.1 9.30001,-5.68334 14.46668,-7.23334c5.16667,-1.55 10.33334,-2.58334 15.50001,-3.61667c4.65,-0.51667 9.81667,-1.03333 14.98334,-1.55c-4.13334,-5.68334 -6.2,-10.33334 -6.2,-14.98334c0,-1.03333 0,-1.55 0,-2.58334c0,-0.51667 0.51667,-1.55 0.51667,-2.06667c0,-0.51667 0.51667,-1.03333 1.03333,-2.06667c0.51667,-1.03333 0.51667,-1.55 0.51667,-2.06667c-2.58334,0.51667 -5.16667,0.51667 -6.71667,0.51667c-9.81667,0 -18.08335,-3.1 -25.31668,-9.81667c-7.23334,-6.71667 -10.33334,-14.46668 -10.33334,-24.28335c0,-9.30001 3.1,-17.56668 9.30001,-24.80002c6.2,-6.71667 13.95001,-11.36667 23.25002,-13.43334c6.2,-1.55 12.40001,-2.06667 18.60001,-2.06667zm102.81674,25.31668l0,12.91668l-25.31668,0l0,25.31668l-12.91668,0l0,-25.31668l-25.31668,0l0,-12.91668l25.31668,0l0,-25.31668l12.91668,0l0,25.31668l25.31668,0z" fill="#ffffff"/>
  </g>
 </g>
</svg>
