<svg width="31" height="31" xmlns="http://www.w3.org/2000/svg">
 <!-- Created with Method Draw - http://github.com/duopixel/Method-Draw/ -->

 <g>
  <title>background</title>
    <g id="canvasGrid" display="none">
   <rect id="svg_1" width="230" height="230" x="2" y="2" stroke-width="0" fill="url(#gridpattern)"/>
  </g>
 </g>
 <g>
  <title>Layer 1</title>
  <ellipse fill="rgb(122, 111, 193)" stroke="#000" stroke-width="0" cx="15.5" cy="15.5" id="svg_7" rx="15" ry="15"/>
  <g id="svg_13">
   <path fill="#ffffff" d="m23.56265,10.50166c-0.60281,0.25117 -1.20563,0.45211 -1.90891,0.50235c0.70328,-0.40188 1.20563,-1.05493 1.4568,-1.80844c-0.65305,0.40188 -1.35633,0.65305 -2.10985,0.80375c-0.55258,-0.65305 -1.4568,-1.05493 -2.36102,-1.05493c-1.80844,0 -3.31548,1.4568 -3.31548,3.31548c0,0.25117 0.05023,0.50235 0.10047,0.75352c-2.7629,-0.1507 -5.17416,-1.4568 -6.8319,-3.46618c-0.30141,0.50235 -0.45211,1.05493 -0.45211,1.65774c0,1.15539 0.60281,2.16009 1.4568,2.7629c-0.55258,0 -1.05493,-0.1507 -1.50704,-0.40188c0,0 0,0.05023 0,0.05023c0,1.60751 1.15539,2.9136 2.66243,3.21501c-0.30141,0.05023 -0.55258,0.10047 -0.85399,0.10047c-0.20094,0 -0.40188,0 -0.60281,-0.05023c0.40188,1.3061 1.65774,2.26056 3.06431,2.31079c-1.10516,0.90422 -2.56196,1.40657 -4.11923,1.40657c-0.25117,0 -0.55258,0 -0.80375,-0.05023c1.4568,0.95446 3.21501,1.50704 5.07369,1.50704c6.07838,0 9.39386,-5.02346 9.39386,-9.39386c0,-0.1507 0,-0.30141 0,-0.40188c0.65305,-0.50235 1.20563,-1.10516 1.65774,-1.75821l0,0z" id="svg_12"/>
  </g>
 </g>
</svg>
