<svg width="31" height="31" xmlns="http://www.w3.org/2000/svg">
 <!-- Created with Method Draw - http://github.com/duopixel/Method-Draw/ -->

 <g>
  <title>background</title>

  <g id="canvasGrid" display="none">
   <rect id="svg_1" width="230" height="230" x="2" y="2" stroke-width="0" fill="url(#gridpattern)"/>
  </g>
 </g>
 <g>
  <title>Layer 1</title>
  <ellipse fill="rgb(122, 111, 193)" stroke="#000" stroke-width="0" cx="15.5" cy="15.5" id="svg_7" rx="15" ry="15"/>
  <g id="svg_14">
   <path id="svg_13" d="m16.08126,21.82922c0,-0.19375 0,-0.32292 -0.06458,-0.51667c-0.06458,-0.12917 -0.06458,-0.32292 -0.12917,-0.45209c-0.06458,-0.12917 -0.12917,-0.25834 -0.19375,-0.45209c-0.12917,-0.12917 -0.19375,-0.25834 -0.25834,-0.3875c-0.06458,-0.12917 -0.19375,-0.19375 -0.32292,-0.3875c-0.12917,-0.12917 -0.25834,-0.25834 -0.32292,-0.32292c-0.06458,-0.06458 -0.19375,-0.19375 -0.3875,-0.32292c-0.19375,-0.12917 -0.32292,-0.25834 -0.3875,-0.25834s-0.19375,-0.12917 -0.3875,-0.25834c-0.19375,-0.12917 -0.32292,-0.25834 -0.3875,-0.25834c-0.12917,0 -0.32292,0 -0.64584,0c-0.45209,0 -0.90417,0 -1.29168,0.06458c-0.45209,0.06458 -0.90417,0.12917 -1.35626,0.32292c-0.45209,0.12917 -0.83959,0.32292 -1.22709,0.58126s-0.64584,0.51667 -0.83959,0.90417c-0.19375,0.3875 -0.32292,0.83959 -0.32292,1.35626c0,0.58126 0.12917,1.09793 0.45209,1.48543c0.32292,0.45209 0.71042,0.77501 1.16251,1.03334s0.96876,0.45209 1.48543,0.58126s1.03334,0.19375 1.55001,0.19375c0.51667,0 0.96876,-0.06458 1.42085,-0.12917c0.45209,-0.12917 0.83959,-0.25834 1.22709,-0.51667c0.3875,-0.19375 0.71042,-0.51667 0.90417,-0.90417c0.19375,-0.3875 0.32292,-0.83959 0.32292,-1.35626zm-1.48543,-10.72093c0,-0.51667 -0.06458,-1.03334 -0.19375,-1.6146c-0.12917,-0.58126 -0.32292,-1.09793 -0.58126,-1.6146c-0.25834,-0.51667 -0.58126,-0.96876 -1.03334,-1.29168c-0.45209,-0.32292 -0.96876,-0.51667 -1.48543,-0.51667c-0.77501,0 -1.35626,0.25834 -1.80835,0.83959c-0.45209,0.58126 -0.64584,1.22709 -0.64584,2.06668c0,0.3875 0.06458,0.77501 0.12917,1.22709c0.06458,0.45209 0.25834,0.83959 0.45209,1.29168c0.19375,0.45209 0.45209,0.83959 0.71042,1.16251c0.25834,0.32292 0.58126,0.64584 0.96876,0.83959c0.3875,0.19375 0.77501,0.32292 1.22709,0.32292c0.77501,0 1.35626,-0.25834 1.74377,-0.77501c0.32292,-0.45209 0.51667,-1.09793 0.51667,-1.93752zm-1.6146,-5.87713l5.42505,0l-1.67918,0.96876l-1.67918,0c0.58126,0.3875 1.03334,0.90417 1.35626,1.55001s0.51667,1.35626 0.51667,2.06668c0,0.58126 -0.06458,1.16251 -0.25834,1.6146c-0.19375,0.45209 -0.45209,0.83959 -0.71042,1.16251c-0.25834,0.25834 -0.51667,0.58126 -0.83959,0.77501c-0.25834,0.25834 -0.51667,0.51667 -0.71042,0.77501c-0.19375,0.25834 -0.25834,0.51667 -0.25834,0.83959c0,0.19375 0.06458,0.45209 0.19375,0.64584c0.12917,0.19375 0.32292,0.3875 0.51667,0.58126c0.19375,0.19375 0.45209,0.3875 0.71042,0.58126c0.25834,0.19375 0.51667,0.45209 0.77501,0.71042c0.25834,0.25834 0.51667,0.51667 0.71042,0.83959c0.19375,0.32292 0.3875,0.64584 0.51667,1.03334c0.12917,0.3875 0.19375,0.83959 0.19375,1.29168c0,1.35626 -0.58126,2.51877 -1.74377,3.48753c-1.22709,1.09793 -2.97086,1.6146 -5.2313,1.6146c-0.51667,0 -0.96876,-0.06458 -1.48543,-0.12917c-0.51667,-0.06458 -1.03334,-0.19375 -1.48543,-0.3875c-0.51667,-0.19375 -0.96876,-0.45209 -1.35626,-0.71042c-0.3875,-0.25834 -0.71042,-0.64584 -0.96876,-1.09793c-0.19375,-0.3875 -0.32292,-0.83959 -0.32292,-1.42085c0,-0.51667 0.12917,-1.03334 0.45209,-1.67918c0.25834,-0.51667 0.64584,-0.96876 1.16251,-1.35626c0.51667,-0.3875 1.16251,-0.71042 1.80835,-0.90417c0.64584,-0.19375 1.29168,-0.32292 1.93752,-0.45209c0.58126,-0.06458 1.22709,-0.12917 1.87293,-0.19375c-0.51667,-0.71042 -0.77501,-1.29168 -0.77501,-1.87293c0,-0.12917 0,-0.19375 0,-0.32292c0,-0.06458 0.06458,-0.19375 0.06458,-0.25834c0,-0.06458 0.06458,-0.12917 0.12917,-0.25834c0.06458,-0.12917 0.06458,-0.19375 0.06458,-0.25834c-0.32292,0.06458 -0.64584,0.06458 -0.83959,0.06458c-1.22709,0 -2.26044,-0.3875 -3.16461,-1.22709c-0.90417,-0.83959 -1.29168,-1.80835 -1.29168,-3.03544c0,-1.16251 0.3875,-2.19585 1.16251,-3.10003c0.77501,-0.83959 1.74377,-1.42085 2.90628,-1.67918c0.77501,-0.19375 1.55001,-0.25834 2.32502,-0.25834zm12.8522,3.16461l0,1.6146l-3.16461,0l0,3.16461l-1.6146,0l0,-3.16461l-3.16461,0l0,-1.6146l3.16461,0l0,-3.16461l1.6146,0l0,3.16461l3.16461,0z" fill="#ffffff"/>
  </g>
 </g>
</svg>
