<svg width="100%" viewBox="0 0 200 100" xmlns="http://www.w3.org/2000/svg">
 <!-- Created with Method Draw - http://github.com/duopixel/Method-Draw/ -->

 <g>
  <title>background</title>
  <rect fill="#ffffff" id="canvas_background" overflow="visible" height="234" width="234" y="-1" x="-1"/>
  <g display="none" overflow="visible" y="0" x="0" height="100%" width="100%" id="canvasGrid">
   <rect fill="url(#gridpattern)" stroke-width="0" y="1" x="1" height="230" width="230"/>
  </g>
 </g>
 <g>
  <title>Layer 1</title>
  <ellipse ry="113.5" rx="113.5" id="svg_7" cy="117" cx="117" stroke-width="0" stroke="#000" fill="#07f4f4"/>
  <g id="svg_13">
   <path id="svg_12" d="m201.8125,65.66141c-6.19159,2.57983 -12.38318,4.64369 -19.6067,5.15966c7.22352,-4.12773 12.38318,-10.83528 14.96301,-18.57477c-6.70755,4.12773 -13.93108,6.70755 -21.67056,8.25545c-5.67562,-6.70755 -14.96301,-10.83528 -24.25039,-10.83528c-18.57477,0 -34.05374,14.96301 -34.05374,34.05374c0,2.57983 0.51597,5.15966 1.03193,7.73949c-28.37812,-1.5479 -53.14447,-14.96301 -70.17134,-35.60164c-3.09579,5.15966 -4.64369,10.83528 -4.64369,17.02687c0,11.86721 6.19159,22.18653 14.96301,28.37812c-5.67562,0 -10.83528,-1.5479 -15.47897,-4.12773c0,0 0,0.51597 0,0.51597c0,16.5109 11.86721,29.92601 27.34618,33.02181c-3.09579,0.51597 -5.67562,1.03193 -8.77142,1.03193c-2.06386,0 -4.12773,0 -6.19159,-0.51597c4.12773,13.41511 17.02687,23.21846 31.47391,23.73442c-11.35125,9.28738 -26.31425,14.44704 -42.30919,14.44704c-2.57983,0 -5.67562,0 -8.25545,-0.51597c14.96301,9.80335 33.02181,15.47897 52.11254,15.47897c62.43186,0 96.48559,-51.59657 96.48559,-96.48559c0,-1.5479 0,-3.09579 0,-4.12773c6.70755,-5.15966 12.38318,-11.35125 17.02687,-18.0588z" fill="#ffffff"/>
  </g>
 </g>
</svg>
